<?xml version="1.0" encoding="iso-8859-1"?>
<!-- Generator: Adobe Illustrator 22.0.1, SVG Export Plug-In . SVG Version: 6.00 Build 0) -->
<svg version="1.1" id="Layer_1" xmlns="http://www.w3.org/2000/svg" xmlns:xlink="http://www.w3.org/1999/xlink" x="0px" y="0px" width="360px" height="360px" viewBox="0 0 360 360" enable-background="new 0 0 100% 100%" xml:space="preserve">
	<path
		fill="#80B6B5"
		d="M264.362,196.436l0.083,0.041l-9.053-19.003l0.003,0.001l-27.6-57.934l-19.376,34.52l0.022,0.011
	l-3.901,6.95l12.046,25.286H175.69l22.121-39.409l0.006,0.013l22.951-40.887l-20.172-42.342L84.393,270.697l33.402,18.751
	l36.394-64.835h78.738c0.482,6.285-0.833,12.684-4.01,18.572c-5.988,11.105-17.097,17.735-29.713,17.735v38.305
	c26.932,0,50.643-14.152,63.429-37.857C273.784,240.688,274.238,217.072,264.362,196.436z"/>
	<g></g>
	<g></g>
	<g></g>
	<g></g>
	<g></g>
	<g></g>
</svg>